<svg width="64" height="64" viewBox="0 0 64 64" fill="none" xmlns="http://www.w3.org/2000/svg">
<g clip-path="url(#clip0_3249_2768)">
<path d="M62.3758 53.4377L49.3258 51.9502L44.0883 64.0002L31.8633 42.8252L50.1508 32.2627L62.3758 53.4377Z" fill="url(#paint0_linear_3249_2768)"/>
<path d="M34.5781 41.2627L47.4406 33.8252L56.5656 49.6252L47.3781 48.5752L43.6906 57.0627L34.5781 41.2627Z" fill="url(#paint1_linear_3249_2768)"/>
<path d="M1.625 53.4377L14.675 51.9502L19.9125 64.0002L32.1375 42.8252L13.85 32.2627L1.625 53.4377Z" fill="url(#paint2_linear_3249_2768)"/>
<path d="M29.425 41.2627L16.5625 33.8252L7.4375 49.6252L16.625 48.5752L20.3 57.0627L29.425 41.2627Z" fill="url(#paint3_linear_3249_2768)"/>
<path d="M32 43.75C44.0812 43.75 53.875 33.9562 53.875 21.875C53.875 9.79377 44.0812 0 32 0C19.9188 0 10.125 9.79377 10.125 21.875C10.125 33.9562 19.9188 43.75 32 43.75Z" fill="url(#paint4_linear_3249_2768)"/>
<path d="M32 37.8125C40.802 37.8125 47.9375 30.677 47.9375 21.875C47.9375 13.073 40.802 5.9375 32 5.9375C23.198 5.9375 16.0625 13.073 16.0625 21.875C16.0625 30.677 23.198 37.8125 32 37.8125Z" fill="url(#paint5_linear_3249_2768)"/>
<path d="M33.9645 13.7187L35.8145 17.2562L39.752 17.9312C41.5645 18.2437 42.277 20.4562 41.002 21.7687L38.2145 24.6187L38.7895 28.5687C39.052 30.3812 37.177 31.7562 35.527 30.9437L31.952 29.1687L28.377 30.9437C26.727 31.7562 24.852 30.3937 25.1145 28.5687L25.6895 24.6187L22.902 21.7687C21.6145 20.4562 22.3395 18.2437 24.152 17.9312L28.0895 17.2562L29.9395 13.7187C30.7895 12.0938 33.1145 12.0938 33.9645 13.7187Z" fill="url(#paint6_linear_3249_2768)"/>
</g>
<defs>
<linearGradient id="paint0_linear_3249_2768" x1="41.9198" y1="39.1544" x2="54.8916" y2="61.6101" gradientUnits="userSpaceOnUse">
<stop stop-color="#DE5709"/>
<stop offset="0.8" stop-color="#FDAC33"/>
</linearGradient>
<linearGradient id="paint1_linear_3249_2768" x1="41.7229" y1="38.8098" x2="51.4024" y2="55.5661" gradientUnits="userSpaceOnUse">
<stop stop-color="#FF9900"/>
<stop offset="1" stop-color="#FCD34F"/>
</linearGradient>
<linearGradient id="paint2_linear_3249_2768" x1="22.3387" y1="38.6979" x2="9.50281" y2="60.9182" gradientUnits="userSpaceOnUse">
<stop stop-color="#DE5709"/>
<stop offset="0.8" stop-color="#FDAC33"/>
</linearGradient>
<linearGradient id="paint3_linear_3249_2768" x1="22.5357" y1="38.3568" x2="12.9576" y2="54.9375" gradientUnits="userSpaceOnUse">
<stop stop-color="#FF9900"/>
<stop offset="1" stop-color="#FCD34F"/>
</linearGradient>
<linearGradient id="paint4_linear_3249_2768" x1="32" y1="43.75" x2="32" y2="0" gradientUnits="userSpaceOnUse">
<stop stop-color="#FF9900"/>
<stop offset="0.11" stop-color="#FFA200"/>
<stop offset="0.37" stop-color="#FFB300"/>
<stop offset="0.65" stop-color="#FFBD00"/>
<stop offset="1" stop-color="#FFC100"/>
</linearGradient>
<linearGradient id="paint5_linear_3249_2768" x1="32" y1="37.8125" x2="32" y2="5.9375" gradientUnits="userSpaceOnUse">
<stop stop-color="#FFE187"/>
<stop offset="1" stop-color="#FFF8E0"/>
</linearGradient>
<linearGradient id="paint6_linear_3249_2768" x1="31.9496" y1="31.1846" x2="31.9496" y2="12.5031" gradientUnits="userSpaceOnUse">
<stop stop-color="#FD7600"/>
<stop offset="0.71" stop-color="#FDBF30"/>
</linearGradient>
<clipPath id="clip0_3249_2768">
<rect width="64.0008" height="63.9999" fill="white"/>
</clipPath>
</defs>
</svg>
