<svg width="65" height="65" viewBox="0 0 65 65" fill="none" xmlns="http://www.w3.org/2000/svg">
<g clip-path="url(#clip0_582_277)">
<path d="M64.5 32.9229C64.5 15.2499 50.173 0.922852 32.5 0.922852C14.827 0.922852 0.5 15.2499 0.5 32.9229C0.5 48.8949 12.202 62.1336 27.5 64.5341V42.1729H19.375V32.9229H27.5V25.8729C27.5 17.8529 32.2775 13.4229 39.587 13.4229C43.088 13.4229 46.75 14.0479 46.75 14.0479V21.9229H42.715C38.7397 21.9229 37.5 24.3896 37.5 26.9204V32.9229H46.375L44.9562 42.1729H37.5V64.5341C52.798 62.1336 64.5 48.8951 64.5 32.9229Z" fill="#1877F2"/>
<path d="M44.9562 42.1729L46.375 32.9229H37.5V26.9204C37.5 24.3894 38.7397 21.9229 42.715 21.9229H46.75V14.0479C46.75 14.0479 43.088 13.4229 39.5868 13.4229C32.2775 13.4229 27.5 17.8529 27.5 25.8729V32.9229H19.375V42.1729H27.5V64.5341C29.154 64.7933 30.8258 64.9232 32.5 64.9229C34.1742 64.9232 35.846 64.7933 37.5 64.5341V42.1729H44.9562Z" fill="white"/>
</g>
<defs>
<clipPath id="clip0_582_277">
<rect width="64" height="64" fill="white" transform="translate(0.5 0.922852)"/>
</clipPath>
</defs>
</svg>
