<svg width="64" height="65" viewBox="0 0 64 65" fill="none" xmlns="http://www.w3.org/2000/svg">
<g clip-path="url(#clip0_582_269)">
<path d="M22.295 3.02833C15.9004 5.24667 10.3857 9.45716 6.56093 15.0413C2.73616 20.6255 0.802929 27.289 1.04518 34.0532C1.28744 40.8173 3.69241 47.3254 7.90686 52.6217C12.1213 57.9179 17.9231 61.7231 24.46 63.4783C29.7596 64.8458 35.312 64.9059 40.64 63.6533C45.4666 62.5692 49.9289 60.2502 53.59 56.9233C57.4004 53.3551 60.1662 48.8157 61.59 43.7933C63.1376 38.3317 63.413 32.588 62.395 27.0033H32.635V39.3483H49.87C49.5255 41.3173 48.7874 43.1965 47.6997 44.8735C46.6121 46.5505 45.1973 47.9909 43.54 49.1083C41.4354 50.5005 39.063 51.4372 36.575 51.8583C34.0797 52.3223 31.5203 52.3223 29.025 51.8583C26.4959 51.3354 24.1035 50.2916 22 48.7933C18.6207 46.4013 16.0834 43.003 14.75 39.0833C13.394 35.0903 13.394 30.7614 14.75 26.7683C15.6991 23.9694 17.2681 21.421 19.34 19.3133C21.7109 16.8571 24.7126 15.1013 28.0158 14.2387C31.3189 13.3761 34.7958 13.44 38.065 14.4233C40.6188 15.2073 42.9542 16.577 44.885 18.4233C46.8283 16.49 48.7683 14.5517 50.705 12.6083C51.705 11.5633 52.795 10.5683 53.78 9.49833C50.8328 6.75571 47.3734 4.62162 43.6 3.21833C36.7285 0.72328 29.2099 0.656227 22.295 3.02833Z" fill="white"/>
<path d="M22.295 3.02783C29.2093 0.654115 36.728 0.719403 43.6 3.21283C47.3741 4.62565 50.8319 6.77002 53.775 9.52283C52.775 10.5928 51.72 11.5928 50.7 12.6328C48.76 14.5695 46.8217 16.4995 44.885 18.4228C42.9542 16.5765 40.6188 15.2068 38.065 14.4228C34.7969 13.436 31.3201 13.3685 28.0161 14.2275C24.7121 15.0866 21.7086 16.8391 19.335 19.2928C17.2632 21.4005 15.6941 23.9489 14.745 26.7478L4.38 18.7228C8.09005 11.3656 14.5138 5.73795 22.295 3.02783Z" fill="#E33629"/>
<path d="M1.63 26.6727C2.1871 23.9116 3.11201 21.2378 4.38 18.7227L14.745 26.7677C13.3891 30.7607 13.3891 35.0896 14.745 39.0827C11.2917 41.7493 7.83666 44.4293 4.38 47.1227C1.20575 40.8042 0.237659 33.6052 1.63 26.6727Z" fill="#F8BD00"/>
<path d="M32.635 26.998H62.395C63.413 32.5827 63.1376 38.3264 61.59 43.788C60.1662 48.8104 57.4004 53.3498 53.59 56.918C50.245 54.308 46.885 51.718 43.54 49.108C45.1984 47.9894 46.6139 46.5475 47.7016 44.8687C48.7893 43.1899 49.5268 41.3088 49.87 39.338H32.635C32.63 35.228 32.635 31.113 32.635 26.998Z" fill="#587DBD"/>
<path d="M4.375 47.123C7.83167 44.4563 11.2867 41.7763 14.74 39.083C16.076 43.004 18.617 46.4025 22 48.793C24.11 50.2843 26.5077 51.3197 29.04 51.833C31.5353 52.297 34.0947 52.297 36.59 51.833C39.078 51.4119 41.4504 50.4752 43.555 49.083C46.9 51.693 50.26 54.283 53.605 56.893C49.9445 60.2216 45.4821 62.5424 40.655 63.628C35.327 64.8805 29.7746 64.8205 24.475 63.453C20.2835 62.3339 16.3684 60.361 12.975 57.658C9.38331 54.8064 6.44978 51.2129 4.375 47.123Z" fill="#319F43"/>
</g>
<defs>
<clipPath id="clip0_582_269">
<rect width="64" height="64" fill="white" transform="translate(0 0.922852)"/>
</clipPath>
</defs>
</svg>
