<svg width="355" height="46" viewBox="0 0 355 46" fill="none" xmlns="http://www.w3.org/2000/svg">
<path d="M8.036 0.830955C7.55067 2.84696 7.252 4.90029 7.14 6.99096C7.06533 9.08162 7.028 11.1723 7.028 13.263V20.655L19.404 7.04696C20.748 5.47896 21.8307 4.13495 22.652 3.01495C23.4733 1.85762 23.94 1.12962 24.052 0.830955H33.068C31.4627 2.21229 30.0067 3.51895 28.7 4.75095C27.3933 5.94562 26.124 7.17762 24.892 8.44695L13.692 20.711L28.196 36.559C29.428 37.8283 30.716 39.079 32.06 40.311C33.404 41.543 34.8787 42.8496 36.484 44.231H27.468C27.356 43.9323 26.9453 43.279 26.236 42.271C25.5267 41.2256 24.5747 40.031 23.38 38.687L7.028 20.823V31.799C7.028 33.8896 7.06533 35.9803 7.14 38.071C7.252 40.1616 7.55067 42.215 8.036 44.231H0.42C0.905333 42.215 1.18533 40.1616 1.26 38.071C1.372 35.9803 1.428 33.8896 1.428 31.799V13.263C1.428 11.1723 1.372 9.08162 1.26 6.99096C1.18533 4.90029 0.905333 2.84696 0.42 0.830955H8.036ZM47.9929 0.830955C47.5075 2.84696 47.2089 4.90029 47.0969 6.99096C47.0222 9.08162 46.9849 11.1723 46.9849 13.263V25.023C46.9849 27.935 47.2462 30.567 47.7689 32.919C48.2915 35.2336 49.3182 37.0816 50.8489 38.463C52.3795 39.807 54.6195 40.479 57.5689 40.479C60.5555 40.479 62.7955 39.807 64.2889 38.463C65.8195 37.0816 66.8462 35.2336 67.3689 32.919C67.8915 30.567 68.1529 27.935 68.1529 25.023V13.263C68.1529 11.1723 68.0969 9.08162 67.9849 6.99096C67.9102 4.90029 67.6302 2.84696 67.1449 0.830955H74.7609C74.2755 2.84696 73.9769 4.90029 73.8649 6.99096C73.7902 9.08162 73.7529 11.1723 73.7529 13.263V25.023C73.7529 29.167 73.1929 32.7323 72.0729 35.719C70.9902 38.7056 69.2542 41.0016 66.8649 42.607C64.4755 44.2123 61.3769 45.015 57.5689 45.015C53.7609 45.015 50.6622 44.2123 48.2729 42.607C45.9209 41.0016 44.1849 38.7056 43.0649 35.719C41.9449 32.7323 41.3849 29.167 41.3849 25.023V13.263C41.3849 11.1723 41.3289 9.08162 41.2169 6.99096C41.1422 4.90029 40.8622 2.84696 40.3769 0.830955H47.9929ZM93.6123 0.830955C96.4496 0.830955 99.0443 1.35362 101.396 2.39895C103.786 3.40696 105.69 4.86296 107.108 6.76696C108.564 8.63362 109.292 10.855 109.292 13.431C109.292 15.4843 108.826 17.3323 107.892 18.975C106.959 20.6176 105.671 22.0176 104.028 23.175C102.423 24.295 100.594 25.1163 98.5403 25.639L106.604 37.343C107.5 38.5003 108.434 39.6576 109.404 40.815C110.412 41.9723 111.458 43.111 112.54 44.231H103.86C103.375 43.1483 102.74 41.9723 101.956 40.703C101.21 39.3963 100.183 37.7536 98.8763 35.775L92.0443 26.255H88.3483V31.799C88.3483 33.8896 88.3856 35.9803 88.4603 38.071C88.5723 40.1616 88.871 42.215 89.3563 44.231H81.7403C82.2256 42.215 82.5056 40.1616 82.5803 38.071C82.6923 35.9803 82.7483 33.8896 82.7483 31.799V13.263C82.7483 11.1723 82.6923 9.08162 82.5803 6.99096C82.5056 4.90029 82.2256 2.84696 81.7403 0.830955H93.6123ZM88.3483 21.775H91.9323C95.591 21.775 98.391 21.0656 100.332 19.647C102.274 18.2283 103.244 16.1563 103.244 13.431C103.244 10.6683 102.274 8.63362 100.332 7.32695C98.391 5.98295 95.591 5.31095 91.9323 5.31095H88.3483V21.775ZM144.133 5.25495L141.053 11.303H140.885C140.624 10.2576 140.101 9.21229 139.317 8.16695C138.57 7.12162 137.562 6.26295 136.293 5.59095C135.061 4.88162 133.53 4.52695 131.701 4.52695C129.349 4.52695 127.408 5.12429 125.877 6.31895C124.384 7.51362 123.637 9.10029 123.637 11.079C123.637 12.6096 124.141 13.879 125.149 14.887C126.157 15.8576 127.464 16.735 129.069 17.519C130.674 18.2656 132.373 19.0683 134.165 19.927C136.069 20.823 137.88 21.8683 139.597 23.063C141.314 24.2203 142.714 25.6203 143.797 27.263C144.88 28.8683 145.421 30.8096 145.421 33.087C145.421 35.439 144.842 37.511 143.685 39.303C142.565 41.095 140.941 42.495 138.813 43.503C136.722 44.511 134.202 45.015 131.253 45.015C128.938 45.015 126.922 44.7536 125.205 44.231C123.488 43.7083 122.032 43.0923 120.837 42.383C119.68 41.6363 118.765 40.927 118.093 40.255C117.421 39.583 116.973 39.0976 116.749 38.799L120.501 32.695H120.669C121.154 33.927 121.845 35.1403 122.741 36.335C123.674 37.5296 124.832 38.5376 126.213 39.359C127.632 40.143 129.312 40.535 131.253 40.535C133.68 40.535 135.658 39.8443 137.189 38.463C138.757 37.0443 139.541 35.2523 139.541 33.087C139.541 30.8843 138.794 29.1296 137.301 27.823C135.808 26.479 133.978 25.2843 131.813 24.239C130.245 23.455 128.64 22.6896 126.997 21.943C125.392 21.159 123.898 20.2816 122.517 19.311C121.136 18.303 120.016 17.127 119.157 15.783C118.298 14.439 117.85 12.815 117.813 10.911C117.776 8.82029 118.336 6.97229 119.493 5.36696C120.65 3.72429 122.293 2.43629 124.421 1.50296C126.549 0.532289 129.013 0.0469551 131.813 0.0469551C133.941 0.0469551 135.752 0.289622 137.245 0.774956C138.776 1.22295 140.026 1.78295 140.997 2.45495C141.968 3.08962 142.696 3.68695 143.181 4.24695C143.704 4.76962 144.021 5.10562 144.133 5.25495ZM159.479 0.830955C158.993 2.84696 158.695 4.90029 158.583 6.99096C158.508 9.08162 158.471 11.1723 158.471 13.263V31.799C158.471 33.8896 158.508 35.9803 158.583 38.071C158.695 40.1616 158.993 42.215 159.479 44.231H151.863C152.348 42.215 152.628 40.1616 152.703 38.071C152.815 35.9803 152.871 33.8896 152.871 31.799V13.263C152.871 11.1723 152.815 9.08162 152.703 6.99096C152.628 4.90029 152.348 2.84696 151.863 0.830955H159.479ZM181.369 31.799V23.119L172.353 9.79096C171.27 8.18562 170.132 6.63629 168.937 5.14296C167.742 3.64962 166.454 2.21229 165.073 0.830955H173.473C173.996 2.06295 174.724 3.44429 175.657 4.97496C176.628 6.50562 177.972 8.55896 179.689 11.135L184.337 17.799L188.761 11.191C189.918 9.43629 190.87 7.96162 191.617 6.76696C192.364 5.53496 192.98 4.45229 193.465 3.51895C193.95 2.58562 194.38 1.68962 194.753 0.830955H203.433C202.052 2.24962 200.764 3.70562 199.569 5.19896C198.412 6.69229 197.273 8.22296 196.153 9.79096L186.969 23.343V31.799C186.969 33.8896 187.006 35.9803 187.081 38.071C187.193 40.1616 187.492 42.215 187.977 44.231H180.361C180.846 42.215 181.126 40.1616 181.201 38.071C181.313 35.9803 181.369 33.8896 181.369 31.799ZM224.562 45.015C221.351 45.015 218.402 44.455 215.714 43.335C213.026 42.1776 210.692 40.5723 208.714 38.519C206.772 36.4656 205.26 34.0763 204.178 31.351C203.095 28.6256 202.554 25.6763 202.554 22.503C202.554 19.3296 203.095 16.3803 204.178 13.655C205.26 10.9296 206.772 8.55896 208.714 6.54295C210.692 4.48962 213.026 2.90296 215.714 1.78296C218.402 0.625622 221.351 0.0469551 224.562 0.0469551C227.772 0.0469551 230.722 0.606955 233.41 1.72695C236.098 2.84695 238.431 4.43362 240.41 6.48696C242.388 8.50296 243.919 10.8736 245.002 13.599C246.084 16.3243 246.626 19.2923 246.626 22.503C246.626 25.6763 246.084 28.6256 245.002 31.351C243.919 34.0763 242.388 36.4656 240.41 38.519C238.431 40.5723 236.098 42.1776 233.41 43.335C230.722 44.455 227.772 45.015 224.562 45.015ZM224.506 40.535C226.932 40.535 229.135 40.0496 231.114 39.079C233.092 38.1083 234.791 36.8016 236.21 35.159C237.628 33.479 238.711 31.5563 239.458 29.391C240.204 27.1883 240.578 24.8923 240.578 22.503C240.578 20.0763 240.204 17.7803 239.458 15.615C238.711 13.4496 237.628 11.5456 236.21 9.90296C234.791 8.22295 233.092 6.91629 231.114 5.98296C229.135 5.01229 226.932 4.52695 224.506 4.52695C222.079 4.52695 219.876 5.01229 217.898 5.98296C215.956 6.91629 214.295 8.22295 212.914 9.90296C211.532 11.583 210.468 13.5056 209.722 15.671C208.975 17.799 208.602 20.0763 208.602 22.503C208.602 24.8923 208.975 27.1883 209.722 29.391C210.468 31.5563 211.532 33.479 212.914 35.159C214.295 36.8016 215.956 38.1083 217.898 39.079C219.876 40.0496 222.079 40.535 224.506 40.535ZM258.212 0.830955C257.726 2.84696 257.428 4.90029 257.316 6.99096C257.241 9.08162 257.204 11.1723 257.204 13.263V25.023C257.204 27.935 257.465 30.567 257.988 32.919C258.51 35.2336 259.537 37.0816 261.068 38.463C262.598 39.807 264.838 40.479 267.788 40.479C270.774 40.479 273.014 39.807 274.508 38.463C276.038 37.0816 277.065 35.2336 277.588 32.919C278.11 30.567 278.372 27.935 278.372 25.023V13.263C278.372 11.1723 278.316 9.08162 278.204 6.99096C278.129 4.90029 277.849 2.84696 277.364 0.830955H284.98C284.494 2.84696 284.196 4.90029 284.084 6.99096C284.009 9.08162 283.972 11.1723 283.972 13.263V25.023C283.972 29.167 283.412 32.7323 282.292 35.719C281.209 38.7056 279.473 41.0016 277.084 42.607C274.694 44.2123 271.596 45.015 267.788 45.015C263.98 45.015 260.881 44.2123 258.492 42.607C256.14 41.0016 254.404 38.7056 253.284 35.719C252.164 32.7323 251.604 29.167 251.604 25.023V13.263C251.604 11.1723 251.548 9.08162 251.436 6.99096C251.361 4.90029 251.081 2.84696 250.596 0.830955H258.212ZM291.858 36.279L296.226 40.647L291.858 45.015L287.49 40.647L291.858 36.279ZM317.103 0.830955H322.815L336.703 34.431C337.449 36.0736 338.215 37.6603 338.999 39.191C339.82 40.6843 340.809 42.3643 341.967 44.231H334.071C333.847 43.0363 333.529 41.7296 333.119 40.311C332.708 38.855 332.017 36.895 331.047 34.431L329.759 31.351H310.159L308.871 34.431C307.937 36.895 307.247 38.855 306.799 40.311C306.388 41.7296 306.071 43.0363 305.847 44.231H297.951C299.108 42.4763 300.06 40.8896 300.807 39.471C301.591 38.015 302.319 36.5216 302.991 34.991L317.103 0.830955ZM312.007 26.871H327.911L319.959 7.60695L312.007 26.871ZM354.057 0.830955C353.572 2.84696 353.273 4.90029 353.161 6.99096C353.086 9.08162 353.049 11.1723 353.049 13.263V31.799C353.049 33.8896 353.086 35.9803 353.161 38.071C353.273 40.1616 353.572 42.215 354.057 44.231H346.441C346.926 42.215 347.206 40.1616 347.281 38.071C347.393 35.9803 347.449 33.8896 347.449 31.799V13.263C347.449 11.1723 347.393 9.08162 347.281 6.99096C347.206 4.90029 346.926 2.84696 346.441 0.830955H354.057Z" fill="url(#paint0_linear_582_251)"/>
<defs>
<linearGradient id="paint0_linear_582_251" x1="380.968" y1="-12.1777" x2="354.644" y2="126.361" gradientUnits="userSpaceOnUse">
<stop stop-color="#F9FFCF"/>
<stop offset="0.465" stop-color="#F2DB73"/>
<stop offset="1" stop-color="#C49235"/>
</linearGradient>
</defs>
</svg>
