<svg width="64" height="64" viewBox="0 0 64 64" fill="none" xmlns="http://www.w3.org/2000/svg">
<rect width="64" height="64" rx="32" fill="white"/>
<path fill-rule="evenodd" clip-rule="evenodd" d="M28.1806 22.2261H14.6214C13.101 22.2261 11.8685 23.4586 11.8685 24.979C11.8685 26.4994 13.101 27.7319 14.6214 27.7319H21.5346L10.406 38.8605C9.3308 39.9354 9.3308 41.6785 10.406 42.7537C11.481 43.8287 13.2241 43.8287 14.2991 42.7537L25.4276 31.6251V38.5381C25.4276 40.0586 26.6602 41.2911 28.1806 41.2911C29.701 41.2911 30.9334 40.0586 30.9334 38.5381V24.979C30.9334 23.4586 29.701 22.2261 28.1806 22.2261Z" fill="black"/>
<path fill-rule="evenodd" clip-rule="evenodd" d="M36.1045 41.1739H49.6637C51.1841 41.1739 52.4166 39.9415 52.4166 38.4211C52.4166 36.9006 51.1841 35.6681 49.6637 35.6681H42.7505L53.8791 24.5396C54.9543 23.4646 54.9543 21.7215 53.8791 20.6465C52.804 19.5713 51.061 19.5713 49.986 20.6465L38.8574 31.7751V24.8618C38.8574 23.3414 37.6249 22.109 36.1045 22.109C34.5841 22.109 33.3516 23.3414 33.3516 24.8618V38.4211C33.3516 39.9415 34.5841 41.1739 36.1045 41.1739Z" fill="#FF7900"/>
</svg>
