<svg width="64" height="64" viewBox="0 0 64 64" fill="none" xmlns="http://www.w3.org/2000/svg">
<rect width="64" height="64" rx="32" fill="white"/>
<path d="M25.8179 48.3436L26.4326 44.4394L25.0634 44.4077H18.5254L23.069 15.5984C23.0825 15.5104 23.1272 15.4302 23.1949 15.3723C23.2627 15.3145 23.3489 15.283 23.438 15.2835H34.462C38.1218 15.2835 40.6474 16.045 41.966 17.5482C42.5842 18.2533 42.9779 18.9902 43.1683 19.8012C43.3681 20.6521 43.3717 21.6687 43.1766 22.9086L43.1625 22.9991V23.7935L43.7807 24.1438C44.2526 24.3829 44.6768 24.7063 45.0323 25.0981C45.5612 25.701 45.9032 26.4673 46.0477 27.3758C46.197 28.3101 46.1476 29.4219 45.9032 30.6806C45.6211 32.1285 45.1651 33.3896 44.5493 34.4215C44.0059 35.3459 43.2753 36.1465 42.4044 36.772C41.5864 37.3526 40.6145 37.7933 39.5156 38.0754C38.4508 38.3527 37.2368 38.4926 35.9052 38.4926H35.0473C34.4338 38.4926 33.8379 38.7135 33.3702 39.1096C32.9031 39.5099 32.5932 40.063 32.4958 40.6703L32.4311 41.0217L31.3452 47.9029L31.2958 48.1556C31.2829 48.2355 31.2606 48.2755 31.2277 48.3025C31.1958 48.3286 31.156 48.3431 31.1148 48.3436H25.8179Z" fill="#253B80"/>
<path d="M44.3673 23.0908C44.3344 23.3012 44.2968 23.5163 44.2545 23.7372C42.8007 31.2013 37.8269 33.7799 31.4746 33.7799H28.2403C27.4635 33.7799 26.8088 34.344 26.6878 35.1103L25.0318 45.6124L24.5629 48.5894C24.5442 48.7074 24.5513 48.8282 24.5838 48.9432C24.6163 49.0583 24.6733 49.165 24.7509 49.2559C24.8285 49.3468 24.9249 49.4198 25.0335 49.4699C25.142 49.52 25.2602 49.546 25.3797 49.546H31.1162C31.7955 49.546 32.3725 49.0524 32.4795 48.3825L32.5359 48.0911L33.616 41.2369L33.6853 40.8608C33.7911 40.1886 34.3693 39.695 35.0486 39.695H35.9066C41.4644 39.695 45.8152 37.4385 47.0868 30.9087C47.6181 28.1809 47.3431 25.9032 45.9374 24.3013C45.4919 23.8058 44.9599 23.3956 44.3673 23.0908Z" fill="#179BD7"/>
<path d="M42.8462 22.4844C42.382 22.3501 41.9098 22.2453 41.4324 22.1706C40.489 22.0256 39.5356 21.9561 38.5812 21.9626H29.9406C29.6118 21.9623 29.2937 22.0797 29.0439 22.2935C28.7941 22.5074 28.629 22.8035 28.5785 23.1284L26.7404 34.7706L26.6875 35.1103C26.7448 34.7396 26.9328 34.4018 27.2175 34.1577C27.5023 33.9137 27.865 33.7797 28.24 33.7799H31.4744C37.8267 33.7799 42.8004 31.2002 44.2542 23.7372C44.2977 23.5163 44.3341 23.3012 44.367 23.0908C43.9834 22.8897 43.5836 22.721 43.1718 22.5866C43.0638 22.5508 42.9553 22.5167 42.8462 22.4844Z" fill="#222D65"/>
<path d="M28.5782 23.1284C28.6283 22.8034 28.7933 22.5071 29.0432 22.2934C29.2931 22.0797 29.6115 21.9627 29.9403 21.9638H38.5809C39.6045 21.9638 40.56 22.0307 41.4321 22.1718C42.0222 22.2645 42.6041 22.4032 43.1726 22.5866C43.6016 22.7289 44 22.8969 44.3679 23.0908C44.8004 20.3325 44.3643 18.4544 42.8729 16.7538C41.2287 14.8816 38.2612 14.0801 34.4639 14.0801H23.4399C22.6643 14.0801 22.0026 14.6442 21.8827 15.4117L17.2909 44.5171C17.2696 44.6522 17.2777 44.7904 17.3148 44.9221C17.3519 45.0537 17.4171 45.1758 17.5059 45.2799C17.5947 45.384 17.7049 45.4676 17.8291 45.525C17.9533 45.5824 18.0885 45.6122 18.2253 45.6124H25.0312L26.7401 34.7706L28.5782 23.1284Z" fill="#253B80"/>
</svg>
